/* XPM */
static char *result[] = {
/* columns rows colors chars-per-pixel */
"64 64 129 2 ",
"   c #EF970A",
".  c #EF970B",
"X  c #EF980B",
"o  c #EF990C",
"O  c #F19C12",
"+  c #F29F17",
"@  c #FFA90A",
"#  c #FFA90B",
"$  c #FFAA0B",
"%  c #FFAA0C",
"&  c #FFAA0D",
"*  c #FFAB0E",
"=  c #FFAB0F",
"-  c #F2A017",
";  c #FFAB10",
":  c #FFAD13",
">  c #FFAE16",
",  c #FFAF17",
"<  c #F2A119",
"1  c #F3A31D",
"2  c #F3A51F",
"3  c #FFAF18",
"4  c #FFB01A",
"5  c #FFB01B",
"6  c #FFB11D",
"7  c #FFB11E",
"8  c #FFB21E",
"9  c #F4A723",
"0  c #F5AA28",
"q  c #F5AB28",
"w  c #F6AD2B",
"e  c #F6AE2D",
"r  c #F7AF2E",
"t  c #F7AF2F",
"y  c #FFB320",
"u  c #FFB321",
"i  c #FFB526",
"p  c #FFB527",
"a  c #FFB628",
"s  c #FFB62A",
"d  c #FFB72B",
"f  c #FFB72C",
"g  c #F7B030",
"h  c #F7B132",
"j  c #F8B234",
"k  c #F8B334",
"l  c #F8B436",
"z  c #F8B437",
"x  c #FFB930",
"c  c #FFB932",
"v  c #FFBA32",
"b  c #FFBB35",
"n  c #FFBC35",
"m  c #F9B538",
"M  c #F9B73B",
"N  c #FFBD39",
"B  c #FFBD3A",
"V  c #FFBE3B",
"C  c #F9B83D",
"Z  c #FAB93D",
"A  c #FFBE3C",
"S  c #FFBF3D",
"D  c #FABB42",
"F  c #FBBB42",
"G  c #FBBC42",
"H  c #FBBE46",
"J  c #FCBF48",
"K  c #FFC040",
"L  c #FFC041",
"P  c #FFC142",
"I  c #FFC246",
"U  c #FCC14A",
"Y  c #FFC449",
"T  c #FFC44A",
"R  c #FFC54B",
"E  c #FDC34D",
"W  c #FFC44C",
"Q  c #FFC54D",
"!  c #FDC44F",
"~  c #FFC64F",
"^  c #FFC750",
"/  c #FEC854",
"(  c #FEC855",
")  c #FFC955",
"_  c #FFC856",
"`  c #FFC956",
"'  c #FFC957",
"]  c #FFCA57",
"[  c #FFCA58",
"{  c #FFCB5C",
"}  c #FFCC5D",
"|  c #FFCC5E",
" . c #FFCC5F",
".. c #FFCD5F",
"X. c #FFCD60",
"o. c #FFCE61",
"O. c #FFCD62",
"+. c #FFCF64",
"@. c #FFD066",
"#. c #FFD067",
"$. c #FFD16B",
"%. c #FFD26D",
"&. c #FFD36F",
"*. c #FFD471",
"=. c #FFD472",
"-. c #FFD473",
";. c #FFD573",
":. c #FFD574",
">. c #FFD676",
",. c #FFD678",
"<. c #FFD779",
"1. c #FFD77A",
"2. c #FFD87A",
"3. c #FFD97F",
"4. c #FFDB84",
"5. c #FFDE8B",
"6. c #FFDE8C",
"7. c #FFE396",
"8. c #FFE397",
"9. c #FFE398",
"0. c #FFE499",
"q. c #FFE59D",
"w. c #FFE8A5",
"e. c #FFE9A6",
"r. c #FFE9A7",
"t. c #FFE9A8",
"y. c #FFEAA8",
"u. c #FFEAA9",
"i. c None",
/* pixels */
"i.i.i.i.i.i.i.i.i.i.i.i.i.i.i.i.i.i.i.i.i.i.i.i.i.i.i.i.i.i.i.i.i.i.i.i.i.i.i.i.i.i.i.i.i.i.i.i.i.i.i.i.i.i.i.i.i.i.i.i.i.i.i.i.",
"i.i.i.i.i.i.i.i.i.i.i.i.i.i.i.i.i.i.i.i.i.i.i.i.i.i.i.i.i.i.i.i.i.i.i.i.i.i.i.i.i.i.i.i.i.i.i.i.i.i.i.i.i.i.i.i.i.i.i.i.i.i.i.i.",
"i.i.i.i.i.i.i.i.i.i.i.i.i.i.i.i.i.i.i.i.i.i.i.i.i.i.i.i.i.i.i.i.i.i.i.i.i.i.i.i.i.i.i.i.i.i.i.i.i.i.i.i.i.i.i.i.i.i.i.i.i.i.i.i.",
"i.i.i.i.i.i.i.i.i.i.i.i.i.i.i.i.i.i.i.i.i.i.i.i.i.i.i.i.i.i.i.i.i.i.i.i.i.i.i.i.i.i.i.i.i.i.i.i.i.i.i.i.i.i.i.i.i.i.i.i.i.i.i.i.",
"i.i.i.i.i.i.i.i.i.i.i.i.i.i.i.i.i.i.i.i.i.i.i.i.i.i.i.i.i.i.i.i.i.i.i.i.i.i.i.i.i.i.i.i.i.i.i.i.i.i.i.i.i.i.i.i.i.i.i.i.i.i.i.i.",
"i.i.i.i.i.i.i.i.i.i.i.i.i.i.i.i.i.i.i.i.i.i.i.i.i.i.i.i.i.i.i.i.i.i.i.i.i.i.i.i.i.i.i.i.i.i.i.i.i.i.i.i.i.i.i.i.i.i.i.i.i.i.i.i.",
"i.i.i.i.i.i.i.i.i.i.i.i.i.i.i.i.i.i.i.i.i.i.i.i.i.i.i.i.i.i.i.i.i.i.i.i.i.i.i.i.i.i.i.i.i.i.i.i.i.i.i.i.i.i.i.i.i.i.i.i.i.i.i.i.",
"i.i.i.i.i.i.i.i.i.i.i.i.i.i.i.i.i.i.i.i.i.i.i.i.i.i.i.i.i.i.i.i.i.i.i.i.i.i.i.i.i.i.i.i.i.i.i.i.i.i.i.i.i.i.i.i.i.i.i.i.i.i.i.i.",
"i.i.i.i.i.i.i.i.i.i.i.i.i.i.i.i.i.i.i.i.i.i.i.i.i.i.i.i.i.i.i.i.i.i.i.i.i.i.i.i.i.i.i.i.i.i.i.i.i.i.i.i.i.i.i.i.i.i.i.i.i.i.i.i.",
"i.i.i.i.i.i.i.i.i.i.i.i.i.i.i.i.i.i.i.i.i.i.i.i.i.i.i.i.i.i.i.i.i.i.i.i.i.i.i.i.i.i.i.i.i.i.i.i.i.i.i.i.i.i.i.i.i.i.i.i.i.i.i.i.",
"i.i.i.i.i.i.i.i.i.i.i.i.i.i.i.i.i.i.i.i.i.i.i.i.i.i.i.i.i.i.i.i.i.i.i.i.i.i.i.i.i.i.i.i.i.i.i.i.i.i.i.i.i.i.i.i.i.i.i.i.i.i.i.i.",
"i.i.i.i.i.i.i.i.i.i.i.i.i.i.i.i.i.i.i.i.i.i.i.i.i.i.i.i.i.i.i.i.i.i.i.i.i.i.i.i.i.i.i.i.i.i.i.i.i.i.i.i.i.i.i.i.i.i.i.i.i.i.i.i.",
"i.i.i.i.i.i.i.i.i.i.i.i.i.i.i.i.i.i.i.i.i.i.i.i.i.i.i.i.i.i.i.i.i.i.i.i.i.i.i.i.i.i.i.i.i.i.i.i.i.i.i.i.i.i.i.i.i.i.i.i.i.i.i.i.",
"i.i.i.i.i.i.i.i.i.i.i.i.i.i.i.i.i.i.i.i.i.i.i.i.i.i.i.i.i.i.i.i.i.i.i.i.i.i.i.i.i.i.i.i.i.i.i.i.i.i.i.i.i.i.i.i.i.i.i.i.i.i.i.i.",
"i.i.i.i.i.i.i.i.i.i.i.i.i.i.i.i.i.i.i.i.i.i.i.i.i.@ @ @ @ @ @ @ @ @ @ @ @ @ @ i.i.i.i.i.i.i.i.i.i.i.i.i.i.i.i.i.i.i.i.i.i.i.i.i.",
"i.i.i.i.i.i.i.i.i.i.i.i.i.i.i.i.i.i.i.i.i.i.i.i.& & & & % % % % % % % % % % % % i.i.i.i.i.i.i.i.i.i.i.i.i.i.i.i.i.i.i.i.i.i.i.i.",
"i.i.i.i.i.i.i.i.i.i.i.i.i.i.i.i.i.i.i.i.i.@ @ #  .6.6.3.T T T T T T T T T T T n $ @ @ i.i.i.i.i.i.i.i.i.i.i.i.i.i.i.i.i.i.i.i.i.",
"i.i.i.i.i.i.i.i.i.i.i.i.i.i.i.i.i.i.i.i.i.@ @ # $.u.u.0.[ [ [ [ [ [ [ [ [ [ [ V $ @ @ i.i.i.i.i.i.i.i.i.i.i.i.i.i.i.i.i.i.i.i.i.",
"i.i.i.i.i.i.i.i.i.i.i.i.i.i.i.i.i.i.i.@ ; 8.8.8.>.o.o...[ [ [ [ [ [ [ [ [ [ [ ) ~ ~ ~ = @ i.i.i.i.i.i.i.i.i.i.i.i.i.i.i.i.i.i.i.",
"i.i.i.i.i.i.i.i.i.i.i.i.i.i.i.i.i.i.i.u p q.q.q.;.[ [ [ [ [ [ [ [ [ [ [ [ [ [ [ [ [ [ 4 > i.i.i.i.i.i.i.i.i.i.i.i.i.i.i.i.i.i.i.",
"i.i.i.i.i.i.i.i.i.i.i.i.i.i.i.i.i.@ % 5.e.[ [ [ [ [ [ [ [ [ [ [ [ [ [ [ [ [ [ [ [ [ [ [ T % @ i.i.i.i.i.i.i.i.i.i.i.i.i.i.i.i.i.",
"i.i.i.i.i.i.i.i.i.i.i.i.i.i.i.i.i.i d 4.7.[ [ [ [ [ [ [ [ [ [ [ [ [ [ [ [ [ [ [ [ [ [ [ Q 5 3 i.i.i.i.i.i.i.i.i.i.i.i.i.i.i.i.i.",
"i.i.i.i.i.i.i.i.i.i.i.i.i.i.i.i.@ &.y.#.[ [ [ [ [ [ [ [ [ [ [ [ [ [ [ [ [ [ [ [ [ [ [ [ [ [ S @ i.i.i.i.i.i.i.i.i.i.i.i.i.i.i.i.",
"i.i.i.i.i.i.i.i.i.i.i.i.i.i.i.i.@ &.y.#.[ [ [ [ [ [ [ [ [ [ [ [ [ [ [ [ [ [ [ [ [ [ [ [ [ [ S @ i.i.i.i.i.i.i.i.i.i.i.i.i.i.i.i.",
"i.i.i.i.i.i.i.i.i.i.i.i.i.i.i.i.@ &.y.#.[ [ [ [ [ [ [ [ [ [ [ [ [ [ [ [ [ [ [ [ [ [ [ [ [ [ S @ i.i.i.i.i.i.i.i.i.i.i.i.i.i.i.i.",
"i.i.i.i.i.i.i.i.i.i.i.i.i.i.@ a { -.3...[ [ [ [ [ [ g g g g g g g g g g g g ' [ [ [ [ [ [ [ R v 4 @ i.i.i.i.i.i.i.i.i.i.i.i.i.i.",
"i.i.i.i.i.i.i.i.i.i.i.i.i.i.@ x u.>.[ [ [ [ [ [ [ ]                         ` [ [ [ [ [ [ [ [ [ 8 @ i.i.i.i.i.i.i.i.i.i.i.i.i.i.",
"i.i.i.i.i.i.i.i.i.i.i.i.i.i.@ x u.>.[ [ [ [ [ [ Z e l l l l l l l l l l l l e C [ [ [ [ [ [ [ [ 7 @ i.i.i.i.i.i.i.i.i.i.i.i.i.i.",
"i.i.i.i.i.i.i.i.i.i.i.i.i.i.@ x u.>.[ [ [ [ [ [ q X [ [ [ [ [ [ [ [ [ [ [ [ o 0 ' [ [ [ [ [ [ [ 8 @ i.i.i.i.i.i.i.i.i.i.i.i.i.i.",
"i.i.i.i.i.i.i.i.i.i.i.i.i.i.@ y #.| [ [ [ [ Z < z U [ [ [ [ [ [ [ [ [ [ [ [ U ! [ [ [ [ [ [ [ [ 7 @ i.i.i.i.i.i.i.i.i.i.i.i.i.i.",
"i.i.i.i.i.i.i.i.i.i.i.i.i.i.@ 6 [ [ [ [ [ _ l . m _ _ _ _ _ _ _ _ _ _ _ _ _ _ _ _ _ _ _ ` [ [ [ 8 @ i.i.i.i.i.i.i.i.i.i.i.i.i.i.",
"i.i.i.i.i.i.i.i.i.i.i.i.i.i.@ 6 [ [ [ [ ` - O   O - - - - - - - - - - - - - - - - - - - 9 ' [ [ 8 @ i.i.i.i.i.i.i.i.i.i.i.i.i.i.",
"i.i.i.i.i.i.i.i.i.i.i.i.i.i.@ 6 [ [ [ [ ` + + + + + + + + + + + + + + + + + + + + + + + 9 ' [ [ 8 @ i.i.i.i.i.i.i.i.i.i.i.i.i.i.",
"i.i.i.i.i.i.i.i.i.i.i.i.i.i.@ 6 [ [ [ [ [ ( ( ( ( ( ( ( ( ( ( ( ( ( ( ( ( ( ( ( ( ( ( ( ` [ [ [ 8 @ i.i.i.i.i.i.i.i.i.i.i.i.i.i.",
"i.i.i.i.i.i.i.i.i.i.i.i.i.i.@ 6 [ [ [ E U U U U U U U U U U U U U U U U U U U U U U U ] [ [ [ [ 7 @ i.i.i.i.i.i.i.i.i.i.i.i.i.i.",
"i.i.i.i.i.i.i.i.i.i.i.i.i.i.@ 6 [ [ ' <                                               / [ [ [ [ 8 @ i.i.i.i.i.i.i.i.i.i.i.i.i.i.",
"i.i.i.i.i.i.i.i.i.i.i.i.i.i.@ 6 [ [ [ j w w w w w w w w w w w w w w w w w w w 2   1 w ) [ [ +.2.i @ i.i.i.i.i.i.i.i.i.i.i.i.i.i.",
"i.i.i.i.i.i.i.i.i.i.i.i.i.i.@ 6 [ [ [ [ [ [ [ [ [ [ [ [ [ [ [ [ [ [ [ [ [ [ [ M X l [ [ [ [ :.u.v @ i.i.i.i.i.i.i.i.i.i.i.i.i.i.",
"i.i.i.i.i.i.i.i.i.i.i.i.i.i.@ 6 [ [ [ [ [ [ [ [ D j [ [ [ [ [ [ [ [ [ [ [ [ j h t H [ [ [ [ :.u.c @ i.i.i.i.i.i.i.i.i.i.i.i.i.i.",
"i.i.i.i.i.i.i.i.i.i.i.i.i.i.@ 6 [ [ [ [ [ [ [ [ q X [ [ [ [ [ [ [ [ [ [ [ [ o 0 ' [ [ [ [ [ :.u.v @ i.i.i.i.i.i.i.i.i.i.i.i.i.i.",
"i.i.i.i.i.i.i.i.i.i.i.i.i.i.@ 6 [ [ [ [ [ [ [ [ G k r r r r r r r r r r r r k F [ [ [ [ [ [ :.u.v @ i.i.i.i.i.i.i.i.i.i.i.i.i.i.",
"i.i.i.i.i.i.i.i.i.i.i.i.i.i.@ 6 [ [ [ [ [ [ [ [ [ ]                         ` [ [ [ [ [ [ [ :.u.v @ i.i.i.i.i.i.i.i.i.i.i.i.i.i.",
"i.i.i.i.i.i.i.i.i.i.i.i.i.i.i.i.5 P [ [ [ [ [ [ [ [ J J J J J J J J J J J J [ [ [ [ [ [ +.8.=.f i.i.i.i.i.i.i.i.i.i.i.i.i.i.i.i.",
"i.i.i.i.i.i.i.i.i.i.i.i.i.i.i.i.@ A [ [ [ [ [ [ [ [ [ [ [ [ [ [ [ [ [ [ [ [ [ [ [ [ [ [ #.t.*.@ i.i.i.i.i.i.i.i.i.i.i.i.i.i.i.i.",
"i.i.i.i.i.i.i.i.i.i.i.i.i.i.i.i.@ A [ [ [ [ [ [ [ [ [ [ [ [ [ [ [ [ [ [ [ [ [ [ [ [ [ [ #.t.*.@ i.i.i.i.i.i.i.i.i.i.i.i.i.i.i.i.",
"i.i.i.i.i.i.i.i.i.i.i.i.i.i.i.i.@ N ^ ' [ [ [ [ [ [ [ [ [ [ [ [ [ [ [ [ [ [ [ [ [ [ [ X.$.9.$.@ i.i.i.i.i.i.i.i.i.i.i.i.i.i.i.i.",
"i.i.i.i.i.i.i.i.i.i.i.i.i.i.i.i.i.@ # Y [ [ [ [ [ [ [ [ [ [ [ [ [ [ [ [ [ [ [ [ [ [ [ w.6.& @ i.i.i.i.i.i.i.i.i.i.i.i.i.i.i.i.i.",
"i.i.i.i.i.i.i.i.i.i.i.i.i.i.i.i.i.@ # K R [ [ [ [ [ [ [ [ [ [ [ [ [ [ [ [ [ [ } @.@.@.5.<.& @ i.i.i.i.i.i.i.i.i.i.i.i.i.i.i.i.i.",
"i.i.i.i.i.i.i.i.i.i.i.i.i.i.i.i.i.i.i.% = [ [ [ [ [ [ [ [ [ [ [ [ [ [ [ [ [ [ >.e.r.r., * i.i.i.i.i.i.i.i.i.i.i.i.i.i.i.i.i.i.i.",
"i.i.i.i.i.i.i.i.i.i.i.i.i.i.i.i.i.i.i.@ & L L L ~ [ [ [ [ [ [ [ [ [ o.*.*.*.*.:.<.<.1.: @ i.i.i.i.i.i.i.i.i.i.i.i.i.i.i.i.i.i.i.",
"i.i.i.i.i.i.i.i.i.i.i.i.i.i.i.i.i.i.i.i.i.@ @ # B [ [ [ [ [ [ [ [ [ ,.u.u.u.u.%.% @ @ i.i.i.i.i.i.i.i.i.i.i.i.i.i.i.i.i.i.i.i.i.",
"i.i.i.i.i.i.i.i.i.i.i.i.i.i.i.i.i.i.i.i.i.@ @ @ s b b b b b b b b b I O.O.O.O.W % @ @ i.i.i.i.i.i.i.i.i.i.i.i.i.i.i.i.i.i.i.i.i.",
"i.i.i.i.i.i.i.i.i.i.i.i.i.i.i.i.i.i.i.i.i.i.i.i.@ @ @ @ @ @ @ @ @ @ @ @ @ @ @ @ i.i.i.i.i.i.i.i.i.i.i.i.i.i.i.i.i.i.i.i.i.i.i.i.",
"i.i.i.i.i.i.i.i.i.i.i.i.i.i.i.i.i.i.i.i.i.i.i.i.i.i.i.i.i.i.i.i.i.i.i.i.i.i.i.i.i.i.i.i.i.i.i.i.i.i.i.i.i.i.i.i.i.i.i.i.i.i.i.i.",
"i.i.i.i.i.i.i.i.i.i.i.i.i.i.i.i.i.i.i.i.i.i.i.i.i.i.i.i.i.i.i.i.i.i.i.i.i.i.i.i.i.i.i.i.i.i.i.i.i.i.i.i.i.i.i.i.i.i.i.i.i.i.i.i.",
"i.i.i.i.i.i.i.i.i.i.i.i.i.i.i.i.i.i.i.i.i.i.i.i.i.i.i.i.i.i.i.i.i.i.i.i.i.i.i.i.i.i.i.i.i.i.i.i.i.i.i.i.i.i.i.i.i.i.i.i.i.i.i.i.",
"i.i.i.i.i.i.i.i.i.i.i.i.i.i.i.i.i.i.i.i.i.i.i.i.i.i.i.i.i.i.i.i.i.i.i.i.i.i.i.i.i.i.i.i.i.i.i.i.i.i.i.i.i.i.i.i.i.i.i.i.i.i.i.i.",
"i.i.i.i.i.i.i.i.i.i.i.i.i.i.i.i.i.i.i.i.i.i.i.i.i.i.i.i.i.i.i.i.i.i.i.i.i.i.i.i.i.i.i.i.i.i.i.i.i.i.i.i.i.i.i.i.i.i.i.i.i.i.i.i.",
"i.i.i.i.i.i.i.i.i.i.i.i.i.i.i.i.i.i.i.i.i.i.i.i.i.i.i.i.i.i.i.i.i.i.i.i.i.i.i.i.i.i.i.i.i.i.i.i.i.i.i.i.i.i.i.i.i.i.i.i.i.i.i.i.",
"i.i.i.i.i.i.i.i.i.i.i.i.i.i.i.i.i.i.i.i.i.i.i.i.i.i.i.i.i.i.i.i.i.i.i.i.i.i.i.i.i.i.i.i.i.i.i.i.i.i.i.i.i.i.i.i.i.i.i.i.i.i.i.i.",
"i.i.i.i.i.i.i.i.i.i.i.i.i.i.i.i.i.i.i.i.i.i.i.i.i.i.i.i.i.i.i.i.i.i.i.i.i.i.i.i.i.i.i.i.i.i.i.i.i.i.i.i.i.i.i.i.i.i.i.i.i.i.i.i.",
"i.i.i.i.i.i.i.i.i.i.i.i.i.i.i.i.i.i.i.i.i.i.i.i.i.i.i.i.i.i.i.i.i.i.i.i.i.i.i.i.i.i.i.i.i.i.i.i.i.i.i.i.i.i.i.i.i.i.i.i.i.i.i.i.",
"i.i.i.i.i.i.i.i.i.i.i.i.i.i.i.i.i.i.i.i.i.i.i.i.i.i.i.i.i.i.i.i.i.i.i.i.i.i.i.i.i.i.i.i.i.i.i.i.i.i.i.i.i.i.i.i.i.i.i.i.i.i.i.i.",
"i.i.i.i.i.i.i.i.i.i.i.i.i.i.i.i.i.i.i.i.i.i.i.i.i.i.i.i.i.i.i.i.i.i.i.i.i.i.i.i.i.i.i.i.i.i.i.i.i.i.i.i.i.i.i.i.i.i.i.i.i.i.i.i."
};
