/* XPM */
static char *result[] = {
/* columns rows colors chars-per-pixel */
"64 64 234 2 ",
"   c #250909",
".  c #391917",
"X  c #2D0B0D",
"o  c #2E1211",
"O  c #4D1817",
"+  c #6F1717",
"@  c #552D15",
"#  c #582F16",
"$  c #6B3B1B",
"%  c #633719",
"&  c #723E1C",
"*  c #7B2704",
"=  c #583428",
"-  c #53322E",
";  c #64292A",
":  c #78441F",
">  c #6D421F",
",  c #7E4921",
"<  c #784722",
"1  c #714636",
"2  c #55403A",
"3  c #012A7A",
"4  c #1F3973",
"5  c #553B76",
"6  c #652B5B",
"7  c #374973",
"8  c #524954",
"9  c #755247",
"0  c #775667",
"q  c #862807",
"w  c #8F3212",
"e  c #831F24",
"r  c #A71D24",
"t  c #B51E26",
"y  c #892226",
"u  c #972128",
"i  c #9D3137",
"p  c #A72026",
"a  c #BA2128",
"s  c #AA2E33",
"d  c #A71C17",
"f  c #C31D26",
"g  c #CD1E27",
"h  c #C71F28",
"j  c #DB1E29",
"k  c #D51D27",
"l  c #E31D29",
"z  c #EC1D29",
"x  c #F31E2A",
"c  c #C3232B",
"v  c #CB232B",
"b  c #CA282F",
"n  c #D3242C",
"m  c #DB222C",
"M  c #CC2A31",
"N  c #D62D32",
"B  c #D53838",
"V  c #CA3638",
"C  c #E3232C",
"Z  c #EC242E",
"A  c #F9242E",
"S  c #F32C33",
"D  c #FD2E34",
"F  c #FE3A3D",
"G  c #FA3338",
"H  c #EC3035",
"J  c #834C22",
"K  c #824F2C",
"L  c #8D5426",
"P  c #8F562B",
"I  c #975B2B",
"U  c #935834",
"Y  c #B3493D",
"T  c #9C6231",
"R  c #A86935",
"E  c #BA763B",
"W  c #AA6833",
"Q  c #C47B3D",
"!  c #CD413C",
"~  c #D53246",
"^  c #E43B42",
"/  c #F93F40",
"(  c #AE5156",
")  c #9B6B46",
"_  c #8F6559",
"`  c #B87858",
"'  c #AC6D4C",
"]  c #895272",
"[  c #99736C",
"{  c #AD726C",
"}  c #A6585A",
"|  c #D25451",
" . c #E54644",
".. c #FD4544",
"X. c #FB4947",
"o. c #E85B5B",
"O. c #FE5857",
"+. c #F9504F",
"@. c #CA6C5B",
"#. c #CA7864",
"$. c #D47463",
"%. c #FD7A79",
"&. c #EF6D6A",
"*. c #E45F5F",
"=. c #69987A",
"-. c #B8C53B",
";. c #EBE114",
":. c #BA8456",
">. c #A88575",
",. c #C98C5C",
"<. c #CB8241",
"1. c #C8836B",
"2. c #D88975",
"3. c #DC947C",
"4. c #E58B76",
"5. c #E8937C",
"6. c #E0806B",
"7. c #E2A673",
"8. c #98C160",
"9. c #E1EA60",
"0. c #012D83",
"q. c #01348D",
"w. c #013187",
"e. c #003B9C",
"r. c #003794",
"t. c #003EA2",
"y. c #164A94",
"u. c #315594",
"i. c #3A689B",
"p. c #0041A6",
"a. c #0045AB",
"s. c #0A4BA9",
"d. c #004AB4",
"f. c #004DBB",
"g. c #0050BF",
"h. c #2D55B2",
"j. c #317EA3",
"k. c #565C93",
"l. c #0052C3",
"z. c #0056CC",
"x. c #0059CE",
"c. c #005BD3",
"v. c #005DDB",
"b. c #0056D1",
"n. c #004FC0",
"m. c #0062DE",
"M. c #0767D3",
"N. c #0C66C9",
"B. c #0063E3",
"V. c #006BEC",
"C. c #0067E7",
"Z. c #0176ED",
"A. c #006EF1",
"S. c #0072F4",
"D. c #017BF5",
"F. c #0076F9",
"G. c #007BFD",
"H. c #1678E3",
"J. c #2269D9",
"K. c #8D7682",
"L. c #DA7C82",
"P. c #3088B1",
"I. c #608BAC",
"U. c #0083FD",
"Y. c #018AFE",
"T. c #0D86FA",
"R. c #188CFC",
"E. c #178DF3",
"W. c #2B93FD",
"Q. c #2F81DE",
"!. c #66B2CA",
"~. c #A69598",
"^. c #9798AB",
"/. c #C79886",
"(. c #D69780",
"). c #E99B86",
"_. c #F19D8B",
"`. c #FB9393",
"'. c #DDAA96",
"]. c #DEB19B",
"[. c #EAA38B",
"{. c #F7AC96",
"}. c #F6B39A",
"|. c #EDAB93",
" X c #D2ABB6",
".X c #FDA6A7",
"XX c #E8B6A5",
"oX c #F4BCA4",
"OX c #F9BDA3",
"+X c #FFB1B3",
"@X c #CC9DA2",
"#X c #F9C5AC",
"$X c #FBCBB1",
"%X c #F3C8B3",
"&X c #FDD7BB",
"*X c #EACFBA",
"=X c #91AECC",
"-X c #A7B6C9",
";X c #AABCD4",
":X c #B4B8CA",
">X c #D2BBCA",
",X c #ADC1DA",
"<X c #B5C3D9",
"1X c #B8CCE4",
"2X c #BED2EB",
"3X c #DCC6D6",
"4X c #CBD1D1",
"5X c #FDDBC2",
"6X c #F2D0CE",
"7X c #FEE6CB",
"8X c #FEE0C4",
"9X c #FFF4DA",
"0X c #F8E5DD",
"qX c #C3D6EB",
"wX c #D5DAE8",
"eX c #C8DCF3",
"rX c #E5DCEB",
"tX c #FDDFE0",
"yX c #CAE5F6",
"uX c #D6E5F9",
"iX c #DEE2ED",
"pX c #E7E4ED",
"aX c #F9E8E7",
"sX c #E5EAF5",
"dX c #E3ECFC",
"fX c #EAECF6",
"gX c #F2EDF6",
"hX c #E4F1FE",
"jX c #ECF3FC",
"kX c #EDF0F6",
"lX c #F3F5FB",
"zX c #F5F9FD",
"xX c #FDFDFE",
"cX c None",
/* pixels */
"cXcXcXcXcXcXcXcXcXcXcXcXcXcXcXcXcXcXcXcXcXcXcXcXcXcXcXcXcXcXcXcXcXcXcXcXcXcXcXcXcXcXcXcXcXcXcXcXcXcXcXcXcXcXcXcXcXcXcXcXcXcXcXcX",
"cXcXcXcXcXcXcXcXcXcXcXcXcXcXcXcXcXcXcXcXcXcXcXcXcXcXcXcXcXcXcXcXcXcXdXxXfXlXxXcXcXcXcXcXcXcXcXcXcXcXcXcXcXcXcXcXcXcXcXcXcXcXcXcX",
"cXcXcXcXcXcXcXcXcXcXcXcXcXcXcXcXcXcXcXcXcXcXcXcXcXcXcXcXcXcXcXcXcXpXlXxXfXlXxXwXxXcXcXcXcXcXcXcXcXcXcXcXcXcXcXcXcXcXcXcXcXcXcXcX",
"cXcXcXcXcXcXcXcXcXcXcXcXcXcXcXcXcXcXcXcXcXcXcXcXcXcXcXcXcXcXcXcXcXwXgXxXsXzXxXwXxXlXjXcXcXcXcXcXcXcXcXcXcXcXcXcXcXcXcXcXcXcXcXcX",
"cXcXcXcXcXcXcXcXcXcXcXcXcXcXcXcXcXcXcXcXcXcXcXcXcXcXcXcXcXcXcXcXcX<XpXsXwXsXlXiXxXpXzXxXcXcXcXcXcXcXcXcXcXcXcXcXcXcXcXcXcXcXcXcX",
"cXcXcXcXcXcXcXcXcXcXcXcXcXcXcXcXcXcXcXcXcXcXZ D G F X.O.O.cXcXcXsXgXxXxXxXkX<XwXjXwXxXxXcXcXcXcXcXcXcXcXcXcXcXcXcXcXcXcXcXcXcXcX",
"cXcXcXcXcXcXcXcXcXcXcXcXcXcXcXcXcXcXcXcXcXC S D D ..+XtX.X`.cXcXrXrXpXfXgXlX:X<X-XwXsXcXcXcXcXcXcXcXcXcXcXcXcXcXcXcXcXcXcXcXcXcX",
"cXcXcXcXcXcXcXcXcXcXcXcXcXcXcXcXcXcXcXcXm Z A A D `.+XO.&..X&.cX>X3X3X3X>X4XwX<X:X;XqXcXcXcXcXcXcXcXcXcXcXcXcXcXcXcXcXcXcXcXcXcX",
"cXcXcXcXcXcXcXcXcXcXcXcXcXcXcXcXcXcXcXn m Z x A D %..X`.tX{.%.&. X>X>XrXiXfXzXzXzXkXhXcXcXcXcXcXcXcXcXcXcXcXcXcXcXcXcXcXcXcXcXcX",
"cXcXcXcXcXcXcXcXcXcXcXcXcXcXcXcXcXcXM m C z x A D X..X`.pX6Xo./ &.*.*.>XfXzXxXxXxXxXcXcXcXcXcXcXcXcXcXcXcXcXcXcXcXcXcXcXcXcXcXcX",
"cXcXcXcXcXcXcXcXcXcXcXcXcXcXcXcXcXcXn m C z x A D / o.L.^ x C s u y y } iXdXjXlXjXuXcXcXcXcXcXcXcXcXcXcXcXcXcXcXcXcXcXcXcXcXcXcX",
"cXcXcXcXcXcXcXcXcXcXcXcXcXcXcXcXcXn n m C z x A G G C l l b y + e y u K.lXlXlXdXqXcXcXcXcXcXcXcXcXcXcXcXcXcXcXcXcXcXcXcXcXcXcXcX",
"cXcXcXcXcXcXcXcXcXcXcXcXcXcXcXcXcXn n m l z z A Z l j j i ( @.. O + + @XrXgXhXzXlXcXcXcXcXcXcXcXcXcXcXcXcXcXcXcXcXcXcXcXcXcXcXcX",
"cXcXcXcXcXcXcXcXcXcXcXcXcXcXcXcXcXv n m l z z l j r + O ' [.{.[ 2.u f C ^ o.L. X1XcXcXcXcXcXcXcXcXcXcXcXcXcXcXcXcXcXcXcXcXcXcXcX",
"cXcXcXcXcXcXcXcXcXcXcXcXcXcXcXcXN b k k l l l k j X ; U 1 ].7X7XaX| l A D / X. .cXcXcXcXcXcXcXcXcXcXcXcXcXcXcXcXcXcXcXcXcXcXcXcX",
"cXcXcXcXcXcXcXcXcXcXcXcXcXcXcXcXM v g k j j g h ~ 1 '.XX0X5X7X4X!.XXo.&.+...X.cXcXcXcXcXcXcXcXcXcXcXcXcXcXcXcXcXcXcXcXcXcXcXcXcX",
"cXcXcXcXcXcXcXcXcXcXcXcXcXcXcXcXM c g g k h c s @.7.$XeXyX0X&X*X~.6X7X9X5XO.X.cXcXcXcXcXcXcXcXcXcXcXcXcXcXcXcXcXcXcXcXcXcXcXcXcX",
"cXcXcXcXcXcXcXcXcXcXcXcXcXcXcXcXc h h h f a Y #.3.#X4XP.P.yX%X%XXX&X7X9X9X{.X.cXcXcXcXcXcXcXcXcXcXcXcXcXcXcXcXcXcXcXcXcXcXcXcXcX",
"cXcXcXcXcXcXcXcXcXcXcXcXcXcXcXM c h f a t q U 2.|.$X*Xi.3 =XXX}.oX%X&X5X7X}.+.cXcXcXcXcXcXcXcXcXcXcXcXcXcXcXcXcXcXcXcXcXcXcXcXcX",
"cXcXcXcXcXcXcXcXcXcXcXcXcXcXcXM a a a r q q w $.|.$X5X-Xs.!.XX(.'.].XX%XoX#. .cXcXcXcXcXcXcXcXcXcXcXcXcXcXcXcXcXcXcXcXcXcXcXcXcX",
"cXcXcXcXcXcXcXcXcXcXcXcXcXcXcXM a p s i q * q w #.#X&X[   . . . _ 3./.~._ i cXcXcXcXcXcXcXcXcXcXcXcXcXcXcXcXcXcXcXcXcXcXcXcXcXcX",
"cXcXcXcXcXcXcXcXcXcXcXcXcXcXcXN a | oXoX#.q * * ` $X8X>.        X = 1 = - | cXcXcXcXcXcXcXcXcXcXcXcXcXcXcXcXcXcXcXcXcXcXcXcXcXcX",
"cXcXcXcXcXcXcXcXcXcXcXcXcXcXcXB V OX{.[._.` w q 1.#X&X%X[ 9 = X - . = 1 /.&.cXcXcXcXcXcXcXcXcXcXcXcXcXcXcXcXcXcXcXcXcXcXcXcXcXcX",
"cXcXcXcXcXcXcXcXcXcXcXcXcXcXcXcX| #X#XoX5.3.` R 3.}.#X&X*X%X'.[ ~.~.K.{ OXo.cXcXcXcXcXcXcXcXcXcXcXcXcXcXcXcXcXcXcXcXcXcXcXcXcXcX",
"cXcXcXcXcXcXcXcXcXcXcXcXcXcXcXcXcXOX&X&XoX3.[.5.).|.}.#X$X$X].[ _ ; + '._.cXcXcXcXcXcXcXcXcXcXcXcXcXcXcXcXcXcXcXcXcXcXcXcXcXcXcX",
"cXcXcXcXcXcXcXcXcXcXcXcXcXcXcXcXcXcX#X&X&XOX{.5.4.5.[.[.}.}.$X{ i u } #X*.cXcXcXcXcXcXcXcXcXcXcXcXcXcXcXcXcXcXcXcXcXcXcXcXcXcXcX",
"cXcXcXcXcXcXcXcXcXcXcXcXcXcXcXcXcXcXcX}.OX{.4.$.4.4.4.5.[.[.|.#X).`.%X`. .cXcXcXcXcXcXcXcXcXcXcXcXcXcXcXcXcXcXcXcXcXcXcXcXcXcXcX",
"cXcXcXcXcXcXcXcXcXcXcXcXcXcXcXcXcXcXcXcXcXw + w @.$.$.$.6.4.4.5.).'.'.k.( cXcXcXcXcXcXcXcXcXcXcXcXcXcXcXcXcXcXcXcXcXcXcXcXcXcXcX",
"cXcXcXcXcXcXcXcXcXcXcXcXcXcXcXcXcXcXcXcXcXq q f N  .! ! ! @.#.#.#.(.| 0 h.cXcXcXcXcXcXcXcXcXcXcXcXcXcXcXcXcXcXcXcXcXcXcXcXcXcXcX",
"cXcXcXcXcXcXcXcXcXcXcXcXcXcXcXcXcXcXcXcXcXS D F F / ../ /  .5 u.N.k.*.O.| B.8.9.cXcXcXcXcXcXcXcXcXcXcXcXcXcXcXcXcXcXcXcXcXcXcXcX",
"cXcXcXcXcXcXcXcXcXcXcXcXcXcXcXcXlXaX+.G F F F F F F / / ../ / k.A.F.Z.I.Q.Y.G.I.cXcXcXcXcXcXcXcXcXcXcXQ Q cXcXcXcXcXcXcXcXcXcXcX",
"cXcXcXcXcXcXcXcXcXcXcXcXcXxXxXkXsXlX6X/ F F G S D S S S S S H ^ h.D.8.9.!.Y.Y.U.cXcXcXcXcXcXcXcXcXcXQ <.Q E I cXcXcXcXcXcXcXcXcX",
"cXcXcXcXcXcXcXcXcXcXcXjXzXxXxXxXxXfXzX.XF S S Z C j k k j l x A K.b.;.;.9.E.Y.Y.U.cXcXcXcXcXcXcXcXQ @.Q E W T ,.cXcXcXcXcXcXcXcX",
"cXcXcXcXcXcXcXcXcXhXjXzXxXzXxXxXxXxXfXaXH H m v h a r t g k l ~ J.C.0 ;.-.Y.Y.Y.D.R.W.W.cXcXcXcXcXE Q E E T P 7.cXcXcXcXcXcXcXcX",
"cXcXcXcXcXcXcXcXuXuXzXzXxXxXxXxXxXxXlXjXL.v a p u r r t h g l h.A.F.B.c.M.Z.Z.Z.T.R.W.R.W.R.U.D.N.E E W T P T 7.cXcXcXcXcXcXcXcX",
"cXcXcXcXcXcXcXcXyXuXhXzXxXxXxXxXxXxXzXyX@Xp p cXcX6 a t f a h.V.A.A.A.F.Z.C.Z.Z.U.U.U.Y.Y.Y.Y.U.U.9 W T T , T cXcXcXcXcXcXcXcXcX",
"cXcXcXcXcXcXcXcXuXyXyXdXzXxXxXxXxXxXxX<X:XcXcXcXcXcX5 6 5 h.v.C.V.A.A.S.B.V.S.S.F.G.G.G.U.G.U.U.U.i.T I L : T cXcXcXcXcXcXcXcXcX",
"cXcXcXcXcXcXcXcXcX2X2XeXhXjXhXuXhXzXlX=XcXcXcXcXcXcXz.b.l.v.v.B.C.C.V.B.V.A.V.S.S.S.A.S.G.G.G.G.Z.H._ I J > ' cXcXcXcXcXcXcXcXcX",
"cXcXcXcXcXcXcXcXcX1X1XqXeXyX,X;XeXhXkXcXcXcXcXcXcXcXz.l.n.b.v.B.B.C.B.V.V.V.V.C.B.B.B.C.C.A.S.S.Z.S.7 I J $ ` cXcXcXcXcXcXcXcXcX",
"cXcXcXcXcXcXcXcXcXqX1X,X2X2X=X^.,XuXeXcXcXcXcXcXcXcXz.z.n.l.v.B.B.B.B.C.C.B.B.B.m.v.c.c.m.B.C.V.B.C.i.I J & cXcXcXcXcXcXcXcXcXcX",
"cXcXcXcXcXcXcXcXcXcX2X;X<X2XeX-X2X2XcXcXcXcXcXcXcXcXx.z.g.g.z.v.B.B.B.B.v.v.v.v.z.l.l.l.z.c.c.m.m.m.u.L : K cXcXcXcXcXcXcXcXcXcX",
"cXcXcXcXcXcXcXcXcXcXcXcX,X;X-X-X2X;XcXcXcXcXcXcXcXcXcXz.g.f.l.b.v.v.v.v.v.b.z.l.f.f.a.f.d.g.l.l.z.M.u., & ) cXcXcXcXcXcXcXcXcXcX",
"cXcXcXcXcXcXcXcXcXcXcXcXcXcXcX,X=XcXcXcXcXcXcXcXcXcXcXx.l.f.f.n.l.b.b.b.z.l.g.f.d.a.p.d.f.d.d.d.d.l.8 > % ` cXcXcXcXcXcXcXcXcXcX",
"cXcXcXcXcXcXcXcXcXcXcXcXcXcXcXcXcXcXcXcXcXcXcXcXcXcXcXx.l.l.f.d.n.n.n.n.f.f.d.d.a.p.cXcXcXd.f.f.d.s.2 $ @ :.cXcXcXcXcXcXcXcXcXcX",
"cXcXcXcXcXcXcXcXcXcXcXcXcXcXcXcXcXcXcXcXcXcXcXcXcXcXcXcXl.l.f.d.t.n.d.d.d.d.a.a.cXcXcXcXcXcXcXcXg.y.$ @ @ ) cXcXcXcXcXcXcXcXcXcX",
"cXcXcXcXcXcXcXcXcXcXcXcXcXcXcXcXcXcXcXcXcXcXcXcXcXcXcXcXq.d.g.f.d.d.d.a.a.t.t.cXcXcXcXcXcXcXcXcXcXcX% @ = cXcXcXcXcXcXcXcXcXcXcX",
"cXcXcXcXcXcXcXcXcXcXcXcXcXcXcXcXcXcXcXcXcXcXcXcXcXcXcX0.3 3 q.p.t.d.t.e.r.r.cXcXcXcXcXcXcXcXcXcXcXcXcXcXcXcXcXcXcXcXcXcXcXcXcXcX",
"cXcXcXcXcXcXcXcXcXcXcXcXcXcXcXcXcXcXcXcXcXcXcXcXcXe.e.q.3 3 3 3 0.0.q.r.e.t.cXcXcXcXcXcXcXcXcXcXcXcXcXcXcXcXcXcXcXcXcXcXcXcXcXcX",
"cXcXcXcXcXcXcXcXcXcXcXcXcXcXcXcXcXcXcXcXcX% % 4 r.e.e.r.r.q.q.r.r.r.e.e.p.cXcXcXcXcXcXcXcXcXcXcXcXcXcXcXcXcXcXcXcXcXcXcXcXcXcXcX",
"cXcXcXcXcXcXcXcXcXcXcXcXcXcXcXcXcXcXcXcX,.& J u.p.t.t.t.e.p.e.p.t.t.p.a.a.cXcXcXcXcXcXcXcXcXcXcXcXcXcXcXcXcXcXcXcXcXcXcXcXcXcXcX",
"cXcXcXcXcXcXcXcXcXcXcXcXcXcXcXcXcXcXcXcX,.& J u.b.a.p.p.p.p.p.p.p.p.a.a.cXcXcXcXcXcXcXcXcXcXcXcXcXcXcXcXcXcXcXcXcXcXcXcXcXcXcXcX",
"cXcXcXcXcXcXcXcXcXcXcXcXcXcXcXcXcXcXcXcX:.$ J u.C.b.d.a.a.a.a.a.a.a.a.a.cXcXcXcXcXcXcXcXcXcXcXcXcXcXcXcXcXcXcXcXcXcXcXcXcXcXcXcX",
"cXcXcXcXcXcXcXcXcXcXcXcXcXcXcXcXcXcXcXcX:.$ J 7 m.v.z.d.a.d.a.a.p.p.p.cXcXcXcXcXcXcXcXcXcXcXcXcXcXcXcXcXcXcXcXcXcXcXcXcXcXcXcXcX",
"cXcXcXcXcXcXcXcXcXcXcXcXcXcXcXcXcXcXcXcXcX$ J 8 l.m.x.z.d.a.a.a.p.p.cXcXcXcXcXcXcXcXcXcXcXcXcXcXcXcXcXcXcXcXcXcXcXcXcXcXcXcXcXcX",
"cXcXcXcXcXcXcXcXcXcXcXcXcXcXcXcXcXcXcXcXcX$ : P 7 m.x.l.d.a.p.p.cXcXcXcXcXcXcXcXcXcXcXcXcXcXcXcXcXcXcXcXcXcXcXcXcXcXcXcXcXcXcXcX",
"cXcXcXcXcXcXcXcXcXcXcXcXcXcXcXcXcXcXcXcXcX: J I U y.b.l.d.p.p.cXcXcXcXcXcXcXcXcXcXcXcXcXcXcXcXcXcXcXcXcXcXcXcXcXcXcXcXcXcXcXcXcX",
"cXcXcXcXcXcXcXcXcXcXcXcXcXcXcXcXcXcXcXcXcX< : I W R y.g.a.p.cXcXcXcXcXcXcXcXcXcXcXcXcXcXcXcXcXcXcXcXcXcXcXcXcXcXcXcXcXcXcXcXcXcX",
"cXcXcXcXcXcXcXcXcXcXcXcXcXcXcXcXcXcXcXcXcXK : I W Q ) 7 t.cXcXcXcXcXcXcXcXcXcXcXcXcXcXcXcXcXcXcXcXcXcXcXcXcXcXcXcXcXcXcXcXcXcXcX",
"cXcXcXcXcXcXcXcXcXcXcXcXcXcXcXcXcXcXcXcXcXU > L R E <.E cXcXcXcXcXcXcXcXcXcXcXcXcXcXcXcXcXcXcXcXcXcXcXcXcXcXcXcXcXcXcXcXcXcXcXcX",
"cXcXcXcXcXcXcXcXcXcXcXcXcXcXcXcXcXcXcXcXcX) % K I W E E cXcXcXcXcXcXcXcXcXcXcXcXcXcXcXcXcXcXcXcXcXcXcXcXcXcXcXcXcXcXcXcXcXcXcXcX",
"cXcXcXcXcXcXcXcXcXcXcXcXcXcXcXcXcXcXcXcXcX) % $ J P T T cXcXcXcXcXcXcXcXcXcXcXcXcXcXcXcXcXcXcXcXcXcXcXcXcXcXcXcXcXcXcXcXcXcXcXcX",
"cXcXcXcXcXcXcXcXcXcXcXcXcXcXcXcXcXcXcXcXcXcX> @ % > < cXcXcXcXcXcXcXcXcXcXcXcXcXcXcXcXcXcXcXcXcXcXcXcXcXcXcXcXcXcXcXcXcXcXcXcXcX",
"cXcXcXcXcXcXcXcXcXcXcXcXcXcXcXcXcXcXcXcXcXcXcX@ # % cXcXcXcXcXcXcXcXcXcXcXcXcXcXcXcXcXcXcXcXcXcXcXcXcXcXcXcXcXcXcXcXcXcXcXcXcXcX",
"cXcXcXcXcXcXcXcXcXcXcXcXcXcXcXcXcXcXcXcXcXcXcXcXcXcXcXcXcXcXcXcXcXcXcXcXcXcXcXcXcXcXcXcXcXcXcXcXcXcXcXcXcXcXcXcXcXcXcXcXcXcXcXcX"
};
