/* XPM */
static char *result[] = {
/* columns rows colors chars-per-pixel */
"64 64 22 1 ",
"  c #864A3E",
". c #884C3F",
"X c #8B4E40",
"o c #8F5141",
"O c #925443",
"+ c #995745",
"@ c #965944",
"# c #9D5F46",
"$ c #A05C47",
"% c #A35E49",
"& c #9E6047",
"* c #A06147",
"= c #A46349",
"- c #AA654B",
"; c #AE694C",
": c #B0674D",
"> c #B46B4E",
", c #B86E4F",
"< c #B76D50",
"1 c #BB6F50",
"2 c #BC7051",
"3 c #C27353",
/* pixels */
"111:=-=-%=$#O  OOOOXOXXXXXXXXXXXXXXX XXX               ...      ",
"2>21<;;-1><>O  =<3333333333313331<1311   3,3,,,,,,,>:::::::---- ",
"<21<<>;=:111+  131133311333131311111>1X  3,,3,,33:3,,3:33:33,33 ",
"1211<2221222+  131111113<2111111113111   ,33,33,,3,3,33,33,,,,3 ",
"<2222>222222+  <1111111111222222311131XX ,,,3,,33,,,3,3,1111311.",
"222222222221+  11331113113222222111331X  33,,,3,3,3,3,,,1111,,3.",
"332323222311+  <1111313112222221111111   ,,33,3,,,3,,>3313,,11,.",
"233333221311+  111<313111222222231311>X  3,,3,,33,,33,3,113,3,3.",
"133331111121+. 13333331111131113113111   ,133,,,3,3:,33:1311313 ",
"3332,3111111+. ,>333333113111111111113.  3,,,33,,3,3,,331131113.",
"332211111312+  13331311111113111111113.  ,,3,,3,,3,33,3,1111311.",
"1,1111112212+  <133>1131131111<>131133   3,,3,,3,,,,3,,33131113.",
"                        X  X  X   ....   ..ooo.o..++++++++$$$$$ ",
"                                             .                  ",
"                               X                                ",
"  . . .                        X                                ",
" X<1122222212222222222222%XX1222222<221<1111<<<<,-.  :;-----=%%%",
" X11122222222222222122222%XX1222222222221212111233.  11313113,33",
" X11222222222222222222222%Xo1222222222222222112233+. 11111133,11",
" X<122222222222222222222<$Xo1222222222222222112233.. ,311311,,3,",
" X11222222222222222222222%Xo11312222222222222222,3+..3,,,3,,33,3",
" X<1221222222222222222222%XX21112222222222222222:,.. >1,2,33,,,,",
" X<122222222222222222212<%Xo221122222222222222223,.. :>3223,,33,",
" X11222222122222222222222+Xo22312222222222222222,3.. 3>122,,3,,3",
" X-:122<22211312221213113%XX1131222222221131132211X X1<<2,311111",
" X=;<22<22221111222211111%XX1111222222221111112211X X<:1,3111331",
" X=<1122<1221111112231111+XX131122222222131<222221XX <:1,,311111",
" XXXooOOOXOOOOOO+O++OOOo+XXX+++O++#$$$+$+%%+%%%%%%X X#%%-=%----;",
"                XX      XX          X           X               ",
"                 X X   X   X   X   XX           XX              ",
"         X X     XXX XXX XXX XXX  XX X  X XX  XXXX  X           ",
"---;;:221111+  <<<><><><><><>1>>>>2>>>X X<:1<<1<:<<<11111<1<1<1X",
"==;;=;222222@  ,2222222222222222222222XXX<111222222222222222222X",
"=;==;-;22222#  ,2222222222222222222222  X1:11222222222222222221X",
"==;==-;22,22@  ,222222222222,22222222<X X<222222222222222212222X",
"====;===-;=;@  ,222222222222222222222>  X2212222222222222222211X",
"==*==;;;;;>;@  ,22,,222222222222222222XXX<<12122122222222222222X",
"*======;-;-,@  >2222222222222222222222  X<112222222222212222222X",
"**=========-@  >2222222222222222222221  X<222222222222222222222X",
"*&&&&&&&=-&&o  =,2222222222,,22222222<X X2222222222222222222222X",
"*=&&####==&#@  #&&&&=*=;==>22222222222X  <122222221122112222222X",
"==&&&#####&&o  #&&##&&&*##=>**=;::<22<XX <22222222112221221<222X",
"@@@@.@@@@@o@   @@oo@@o@oX@@X@@ooXXooXo  XO++oOoo++OO+OooOXoXoXOX",
"                                X XX       X XX XX  XX  XXXXX XX",
"                                X                         XXX   ",
"                                  XX  XX  XX   X    XX     X    ",
"  .@.@@.ooooo@@oo@@oo@o@@o  @@@#o+O+O@@@OO@@O@@@@@X XO@@O@+###O+",
"  &=*=&&#################@  ####+######&##&###&##@X X#&#########",
" .&=&&&########&########&@  #&##&&&&&&&&####&##&&&oX &&&&&#&####",
"  &&#######&#############@ X&&&#&&&*##&&##&##&&##&XX &&&&@#&#&#&",
" .&&##########&##&#####&#@ X*&*=***=***&#&####&&#&X  &&@&&&&&&#&",
"  &&#&######&#&#####&##&#@ X=========&&&###&###&&@X  &*&&&&&&#&&",
"  @&&&##&######&##&&&&***@ o***===*==&&&&&&&###&##o  @&&#####@&&",
"  &&&&#######&##&####&&*&@ X**======*&&&&#&&&##&#&X  &&&#####&&&",
" .&&@&@&###&&#&###&##*&&&@ X**=**&**&##&##&######&o  &&&####&&##",
" .&&&&&&######&#&###&&&&&@ .**&&&&&&#######&####&@o  &@&##&##@&&",
"  #&#####&##&###&&&##&#&#@ .####&&&#####&#######&&. .*&*##&&&=&&",
"  #&&&#&########&&&####&#@ .#####&@#@#@@@@@@@@@@@@. ..@...@...@.",
"                                                        ...   ..",
"                                                       ....     ",
"                                              ..    ........    ",
" .......X XX   oo.oo.@.@.@@@@#@@@#&&@#   &#&&*==&&=============.",
"##&&#&######o  #&#&#&&****&***==*===&&   *=============;=&=&===.",
"#&#&########o  ######&#*********====*&  .**===*================."
};
